<svg xmlns="http://www.w3.org/2000/svg" viewBox="0 0 25.929 23.078"><defs><style>.cls-1{fill:#8dceb8;}</style></defs><g id="Layer_2" data-name="Layer 2"><g id="Layer_1-2" data-name="Layer 1"><path class="cls-1" d="M5.552,0V1.126a.3.3,0,0,1-.3.3H3.3A3.3,3.3,0,0,0,0,4.719V18.411a3.3,3.3,0,0,0,3.3,3.3H14.128a.55.55,0,1,0,0-1.1H3.3a2.187,2.187,0,0,1-2.2-2.2V4.719a2.187,2.187,0,0,1,2.2-2.2h1.96a.3.3,0,0,1,.3.3v1.05L8.837,1.935ZM11.8,1.423a.55.55,0,1,0,0,1.1H22.633a2.186,2.186,0,0,1,2.2,2.2V18.411a2.186,2.186,0,0,1-2.2,2.2H20.641a.3.3,0,0,1-.3-.3v-1.1L17.06,21.144l3.284,1.934V22a.3.3,0,0,1,.3-.3h1.992a3.3,3.3,0,0,0,3.3-3.3V4.718a3.3,3.3,0,0,0-3.3-3.295H11.8Zm.562,3.667h0a.226.226,0,0,0-.233.232V6.574a.3.3,0,0,1-.232.289,4.818,4.818,0,0,0-1.515.623.3.3,0,0,1-.368-.042l-.882-.881a.227.227,0,0,0-.33,0l-.849.848a.224.224,0,0,0,0,.328l.886.884a.3.3,0,0,1,.04.369c-.031.047-.058.095-.087.143-.015.023-.027.048-.041.071s-.031.053-.043.08-.042.079-.062.119l-.011.027A4.872,4.872,0,0,0,8.258,10.5a.3.3,0,0,1-.289.232H6.714a.226.226,0,0,0-.233.232v1.2a.226.226,0,0,0,.233.232H7.968a.3.3,0,0,1,.289.23,4.806,4.806,0,0,0,.575,1.417.266.266,0,0,1,.031.069.209.209,0,0,1,.02.031.3.3,0,0,1-.042.367l-.883.882a.226.226,0,0,0,0,.328l.85.848a.227.227,0,0,0,.33,0l.885-.884a.3.3,0,0,1,.368-.041,4.854,4.854,0,0,0,1.513.627.3.3,0,0,1,.231.289v1.249a.225.225,0,0,0,.233.232h1.2a.225.225,0,0,0,.233-.232V16.557a.3.3,0,0,1,.232-.289,4.845,4.845,0,0,0,1.516-.622.3.3,0,0,1,.367.041l.882.881a.227.227,0,0,0,.33,0l.849-.848a.224.224,0,0,0,0-.328l-.885-.884a.3.3,0,0,1-.041-.369l.034-.057a.36.36,0,0,1,.02-.039,4.806,4.806,0,0,0,.575-1.417.3.3,0,0,1,.289-.23H19.22a.225.225,0,0,0,.232-.232v-1.2a.225.225,0,0,0-.232-.232H17.952a.3.3,0,0,1-.275-.231c-.015-.067-.031-.134-.049-.2h0c-.015-.063-.035-.125-.054-.187-.008-.027-.016-.05-.024-.075s-.023-.072-.034-.108-.028-.074-.042-.11a.437.437,0,0,0-.027-.068c-.019-.044-.035-.088-.055-.131-.008-.016-.012-.031-.02-.045-.019-.047-.043-.094-.066-.14,0-.012-.011-.019-.015-.031-.027-.051-.052-.1-.079-.152L17.2,9.243c-.031-.055-.06-.109-.093-.162h0c-.02-.031-.035-.06-.054-.09a.3.3,0,0,1,.041-.368l.882-.881a.224.224,0,0,0,0-.328l-.849-.848a.227.227,0,0,0-.33,0l-.885.884a.3.3,0,0,1-.368.041,4.864,4.864,0,0,0-1.513-.627.3.3,0,0,1-.231-.289V5.325a.226.226,0,0,0-.233-.232Zm.6,3.1a3.371,3.371,0,1,1-3.376,3.371A3.378,3.378,0,0,1,12.964,8.194Zm-7.112.094v.641a.3.3,0,0,1-.231.29,2.4,2.4,0,0,0-.754.312A.3.3,0,0,1,4.5,9.49l-.456-.454-.423.423.453.452a.3.3,0,0,1,.042.368,2.413,2.413,0,0,0-.312.755.3.3,0,0,1-.289.232H2.87v.6h.643A.3.3,0,0,1,3.8,12.1a2.439,2.439,0,0,0,.313.753.3.3,0,0,1-.041.368l-.455.455.424.422.454-.452a.3.3,0,0,1,.367-.042,2.416,2.416,0,0,0,.756.311.3.3,0,0,1,.232.289v.642h.6V14.2a.3.3,0,0,1,.231-.289,2.43,2.43,0,0,0,.755-.313.3.3,0,0,1,.367.041l.3.3a5.4,5.4,0,0,1-.355-.947H7.4A1.91,1.91,0,1,1,6.152,9.645h0a1.91,1.91,0,0,1,1.246.494h.349a5.483,5.483,0,0,1,.362-.953l-.3.3a.3.3,0,0,1-.367.041,2.444,2.444,0,0,0-.757-.31.3.3,0,0,1-.231-.29V8.287Zm13.626,0v.643a.3.3,0,0,1-.232.289,2.407,2.407,0,0,0-.756.311.3.3,0,0,1-.368-.042l-.3-.3a5.316,5.316,0,0,1,.223.528c.052.139.1.281.137.424h.351a1.91,1.91,0,0,1,1.246-.494h0a1.92,1.92,0,1,1,0,3.839,1.9,1.9,0,0,1-1.248-.494H18.18c-.015.055-.031.109-.048.163-.012.035-.024.073-.035.109a5.442,5.442,0,0,1-.281.685l.309-.308a.3.3,0,0,1,.368-.041,2.424,2.424,0,0,0,.754.313.3.3,0,0,1,.231.289v.642h.6V14.2a.3.3,0,0,1,.232-.289,2.407,2.407,0,0,0,.756-.311.3.3,0,0,1,.368.042l.453.453.424-.423-.455-.455a.3.3,0,0,1-.041-.368,2.429,2.429,0,0,0,.313-.753.3.3,0,0,1,.289-.231h.643v-.6h-.644a.3.3,0,0,1-.289-.232,2.435,2.435,0,0,0-.311-.755.3.3,0,0,1,.041-.368l.454-.452-.424-.423-.456.454a.3.3,0,0,1-.368.041,2.422,2.422,0,0,0-.754-.312.3.3,0,0,1-.231-.29V8.288Z"/></g></g></svg>