<svg xmlns="http://www.w3.org/2000/svg" viewBox="0 0 186.69 177.07"><defs><style>.cls-1{fill:#8dceb8;}</style></defs><g id="Layer_2" data-name="Layer 2"><g id="Layer_1-2" data-name="Layer 1"><path class="cls-1" d="M87.86.55a115.65,115.65,0,0,0-27.26.58C52.06,2.27,43.5,4,35.52,7.33a70.22,70.22,0,0,0-7.47,3.46,53.92,53.92,0,0,0-6.67,4.67,40.71,40.71,0,0,0-9,10.21A60.92,60.92,0,0,0,6.58,38.35,105.22,105.22,0,0,0,3.44,49.66C-.67,67.77-1.47,86.82,3.1,104.94c4,15.64,12.18,30.79,24.06,41.82C39.64,158.34,55.52,165,71.82,169.25c7.75,2,15.63,3.57,23.51,5,9.53,1.67,19.26,3,29,2.84,17.16-.37,34.41-5.65,47-17.67a49.42,49.42,0,0,0,13.45-22.47c2.59-9.39,2.25-19,.67-28.55-1.45-8.76-4.55-17-8-25.18a126.75,126.75,0,0,0-11.45-21c-4.73-7-10-13.8-16.62-19.11a57.51,57.51,0,0,0-11.22-7.47,52.83,52.83,0,0,0-7.55-3,45.79,45.79,0,0,0-7.81-1.38,24.21,24.21,0,0,0-4.89-.05A39.25,39.25,0,0,0,110,32.5,12.56,12.56,0,0,0,102.81,38a12.28,12.28,0,0,0-1.21,9.24,12,12,0,0,0,14.77,8.39,24.34,24.34,0,0,1,3.78-.86l-3.19.43a25.31,25.31,0,0,1,6.39,0l-3.19-.42a30.51,30.51,0,0,1,7.32,2l-2.87-1.21a43.59,43.59,0,0,1,9.57,5.73l-2.42-1.88a66,66,0,0,1,11.18,11.35l-1.88-2.43A124.05,124.05,0,0,1,156.8,95.5l-1.21-2.87a96.9,96.9,0,0,1,7,24.25l-.43-3.19a55.63,55.63,0,0,1,.13,14.47l.43-3.19a41.05,41.05,0,0,1-2.71,10.15l1.21-2.87a37.35,37.35,0,0,1-4.81,8.21l1.88-2.43A42.49,42.49,0,0,1,151,145.3l2.43-1.88A51.32,51.32,0,0,1,142.07,150l2.87-1.21a60.59,60.59,0,0,1-14.95,4l3.19-.43a100.43,100.43,0,0,1-26.49-.44l3.19.43c-8.77-1.19-17.5-2.92-26.13-4.9a142.92,142.92,0,0,1-23.32-7.2l2.87,1.21a78.54,78.54,0,0,1-17.3-9.9l2.43,1.88a67.24,67.24,0,0,1-11.78-11.88L38.53,124A76.2,76.2,0,0,1,29,107.45l1.21,2.87a85.8,85.8,0,0,1-5.76-21.27l.43,3.19A106.72,106.72,0,0,1,25,64.18l-.42,3.19c1.2-8.89,3.1-18,6.59-26.29l-1.21,2.86a40.69,40.69,0,0,1,4.84-8.48l-1.88,2.43a31.41,31.41,0,0,1,5.47-5.46l-2.43,1.88a41.38,41.38,0,0,1,8.84-5L41.9,30.48a92.3,92.3,0,0,1,23.49-6l-3.2.43a111.32,111.32,0,0,1,25.67-.36c2.88.3,6.52-1.55,8.49-3.51a12.22,12.22,0,0,0,3.51-8.49,12.14,12.14,0,0,0-3.51-8.48L93.92,2.19A11.93,11.93,0,0,0,87.86.55Z"/></g></g></svg>