<svg xmlns="http://www.w3.org/2000/svg" viewBox="0 0 79.341 80"><defs><style>.cls-1{fill:#8dceb8;}</style></defs><g id="Layer_2" data-name="Layer 2"><g id="Layer_1-2" data-name="Layer 1"><path class="cls-1" d="M13.639,44.559c3.422-1.406,7.735-1.289,9.8.234h0l6.821,5.04c4.993,3.7,7.266,4.805,10.29,5.18a1.758,1.758,0,0,1,.75-.8h0l10.314-5.485c3.351-1.781,5.953-2.156,7.688-1.125a3.653,3.653,0,0,1,1.359,1.43c3-1.945,6.048-2.227,7.97-.68a4.361,4.361,0,0,1,1.57,2.719c3.165-1.406,5.3-.844,6.423-.281a4.916,4.916,0,0,1,2.719,4.36,4.625,4.625,0,0,1-2.579,4.2h0L49.525,76.578A23.817,23.817,0,0,1,37.337,80a11.513,11.513,0,0,1-4.852-.867c-3.4-.891-6.095-1.735-8.486-2.508-6.07-1.922-9.727-3.094-16.97-2.157a1.691,1.691,0,1,1-.445-3.352c7.993-1.031,12.142.305,18.423,2.3,2.391.774,5.11,1.641,8.509,2.508a1.488,1.488,0,0,1,.445.188c1.524.914,8.486.938,13.76-2.391h0L75.1,56.42a1.379,1.379,0,0,0,.867-1.266,1.545,1.545,0,0,0-.867-1.407c-1.266-.656-3.516.047-5.977,1.829a1.722,1.722,0,0,1-2.039-.024,1.669,1.669,0,0,1-.539-1.945c.492-1.219.468-2.25-.024-2.649-.633-.492-2.2-.375-4.242,1.008h0l-1.735,1.2a1.706,1.706,0,0,1-1.734.094,1.64,1.64,0,0,1-.915-1.477c0-.679-.14-1.2-.351-1.312-.328-.188-1.688-.211-4.36,1.219h0l-6.657,3.539c1.242.024,2.6.07,4.2.164a4.43,4.43,0,0,1,4.031,3.774c.258,1.735-.515,4.032-3.539,5.18-11.345,5.2-18.635,2.344-27.682-2.3a1.688,1.688,0,1,1,1.547-3c9.844,5.039,15.493,6.469,24.822,2.2.68-.258,1.618-.75,1.5-1.547a1.069,1.069,0,0,0-.891-.914c-2.274-.117-4.1-.164-5.649-.188-6.3-.117-8.673-.164-16.619-6.047h0l-6.821-5.04c-.727-.539-3.7-.961-6.516.188h0L2.318,52.81a1.7,1.7,0,0,1-2.2-.938,1.713,1.713,0,0,1,.938-2.2h0ZM39.681,0A21.987,21.987,0,1,1,17.694,21.987,22.018,22.018,0,0,1,39.681,0Zm0,3.375A18.612,18.612,0,1,0,58.292,21.987,18.628,18.628,0,0,0,39.681,3.375Zm0,3.071a1.68,1.68,0,0,1,1.687,1.688h0V11.7a33.39,33.39,0,0,1,4.829,1.36h0l.328.117a1.69,1.69,0,1,1-1.055,3.211h0l-.328-.117a24.962,24.962,0,0,0-4.969-1.312c-3.141-.352-5.016.609-5.7,1.617a1.634,1.634,0,0,0-.141,1.758c.516.961,2.227,1.969,5.392,1.992,3.891-.07,6.961,1.36,8.25,3.8a4.989,4.989,0,0,1-.3,5.273c-1.219,1.8-3.516,2.884-6.306,3.071h0v3.375a1.688,1.688,0,1,1-3.375,0h0V32.253a29.95,29.95,0,0,1-4.688-1.312h0l-.352-.118a1.69,1.69,0,1,1,1.055-3.211h0l.352.117a24.529,24.529,0,0,0,4.922,1.313c3.094.351,4.923-.563,5.6-1.547A1.736,1.736,0,0,0,45,25.69c-.516-.984-2.157-2.016-5.228-2.016h-.093c-4.032,0-7.056-1.383-8.321-3.774a5,5,0,0,1,.328-5.25,8.02,8.02,0,0,1,6.305-3.118h0v-3.4A1.681,1.681,0,0,1,39.681,6.446Z"/></g></g></svg>