<?xml version="1.0" encoding="utf-8"?>
<!-- Generator: Adobe Illustrator 25.0.1, SVG Export Plug-In . SVG Version: 6.00 Build 0)  -->
<svg version="1.1" id="Layer_1" xmlns="http://www.w3.org/2000/svg" xmlns:xlink="http://www.w3.org/1999/xlink" x="0px" y="0px"
	 viewBox="0 0 921.6 1164" style="enable-background:new 0 0 921.6 1164;" xml:space="preserve">
<style type="text/css">
	.st0{fill:#EEEEEE;}
	.st1{fill:#FFBEB6;}
	.st2{fill:#D62929;}
	.st3{fill:#E94A47;}
	.st4{fill:#151A4F;}
	.st5{fill:url(#SVGID_1_);}
	.st6{fill:#81AEF2;}
	.st7{fill:url(#SVGID_2_);}
	.st8{fill:none;stroke:#000000;stroke-miterlimit:10;}
	.st9{fill:#F2A19C;}
	.st10{fill:#23286B;}
	.st11{fill:#428DFC;}
	.st12{fill:url(#SVGID_3_);}
	.st13{opacity:0.86;fill:#FFFFFF;enable-background:new    ;}
	.st14{fill:#D6D7D8;}
	.st15{fill:#89B3F4;}
	.st16{fill:#A1C3FC;}
</style>
<g id="Layer_2_1_">
	<g id="Layer_1-2">
		<rect x="84.9" y="539.4" class="st0" width="504.7" height="30.3"/>
		<path class="st1" d="M562,550l-19.4-7.4c-18.2-0.3-36.4,2.6-53.7,8.4c-4.1-3.9,2.4-9.7,7.8-11.5c13.8-4.6,28.4-10.4,36.2-22.6
			c4.1-6.4,5.9-13.9,8.1-21.1c7.4-23.7,19.8-45.4,32.1-66.9c5.5,8.7,14.5,14.6,24.7,16c-8.8,28.9-18.9,57.4-30.3,85.3
			c0.3,7.9,11.6,8.2,19.3,10c15.5,3.6,22.4,21.3,27,36.5c1.1,3.6,0.2,9.6-3.5,8.6c-1.4-0.3-2.2-1.7-2.9-3c-5-9.3-9-19.1-12.1-29.2
			c1.6,14,1,28.2-2,42c-3.7,4.2-10.5-10.7-9.9-18.5s1.5-17.3-4.8-22c2.8,12.9,2.6,26.3-0.6,39.2c-4.3,9.3-10-22.5-10.4-34.7
			c-0.1-2.3-0.1-4.8-1.5-6.5C565,551.3,563.5,550.5,562,550z"/>
		<path class="st1" d="M326,523.2c-15.3,2.2-22.4,3.3-37.7,5.5c-6.3,0.9-12.7,0.9-19,0.2c-4.3-0.6-8.6-2-13-1.6s-9,3.7-8.7,8.1
			c33.1,8.6,67.9,8,100.8-1.6c4.7-1.4,9.9-3,14.4-1c2,1,3.8,2.2,5.4,3.7c10.4,8.2,37.5,16.9,37.4,10.5c0.2-7.7-23.5-14-26.5-26.4
			c-1.6-6.6,1.7-13.3,5-19.3l19.5-36c2-3.6,4-7.5,4-11.6s-2.8-8.6-6.8-9s-7.4,3.1-10,6.2c-5.9,7.3-11.7,14.8-17.2,22.5
			c-6.7,9.4-13.3,19.2-22.7,25.9c-12,8.6-27,11.3-41.6,13.8c-23.9,4-76.8,3.8-71.7,12.1C242.4,529.1,294.5,526.2,326,523.2z"/>
		<path class="st2" d="M868.8,959.5c-9.9,15.8-11.5,35.8-21.9,51.3c-2.9,4.3-6.5,8.3-8.2,13.2c-1.6,4.4-1.5,9.2-1.4,13.9
			c0.7,23.5,3.1,47.4,12,69.2s24.9,41.5,46.6,50.5c10.8-57.6,19.4-115.5,25.7-173.7c-18.7-6.4-36-16.2-51.2-28.8
			C857.9,962.9,876.6,946.9,868.8,959.5z"/>
		<path class="st3" d="M866.5,1085.4c-11.8,4.5-24.8,3.1-37.4,4c-14,1-27.6,4.9-41.1,8.8l-66,19c-6.5,1.7-12.8,3.8-19,6.4
			c-19.8,8.9-32.2,19.2-37.4,40.3c33,0,199.5-1.5,199.5-1.5s-1.5-51.3,0.3-77.2C867.2,1060.1,853.1,1106.8,866.5,1085.4z"/>
		<path class="st4" d="M842.7,887.6c1,32.9,8.7,65.3,22.9,95c-22.5,21.1-41.3,45.6-55.9,72.7c-18.4-50.1-45.5-95.9-72.4-141.3
			c-16.9-28.5-33.7-56.9-50.6-85.4c-6.5-11.1-13.3-22.5-15.2-35.5c-2-13.5,1.4-27.2,4.9-40.4c19.1-72.7,39.2-145.1,60.2-217.2
			c-15.1-24.2-3.4-57.3,13.3-79.9c16.7-22.6,38.5-42.5,45.7-70.4c35.8,24.9,75,55.3,81.8,100.7c3.8,25.5-3.7,51.2-11.7,75.4
			c-23.7,71.7-53.2,142.1-97.2,201.3c-1.6,2.2-3.3,4.4-3.7,7.2c-0.6,3.4,0.9,6.8,2.7,9.6c6.9,10.4,20.8,21.5,27,32.3
			c8.7,15,5.5,22.9,18.9,33c8.4,6.4,17.9,13.6,24.7,22C842.4,872.3,842.5,880.3,842.7,887.6z"/>
		
			<linearGradient id="SVGID_1_" gradientUnits="userSpaceOnUse" x1="323.9389" y1="52.7927" x2="376.8087" y2="52.7927" gradientTransform="matrix(3.14 0 0 3.15 -273.2701 575.138)">
			<stop  offset="0" style="stop-color:#23286B"/>
			<stop  offset="1" style="stop-color:#151A4F"/>
		</linearGradient>
		<path class="st5" d="M866.1,1107.5c-22.9-7.4-46.9-11-71-10.6c13.1-74.5,17.9-150.3,14.1-225.8c-1.2-24.3-3.4-48.8-11.6-71.7
			c-4.1-11.5-9.7-22.4-13.9-33.8c-6.3-17-9.5-35-11.7-53c-12.5-99.2,3-165.8-27.9-260.9c32.5-10.2,63.9-60.3,94.1-76.2
			c43.9,20.8,73.3,68.9,71.9,117.5c-1,32.4-12.2,51.2-18.3,83c-5,25.7-2.9,85.5-3.1,111.7c-0.2,30.5-4.8,39.3-5.1,69.7
			c-0.2,21.1,0.4,32.2,3.5,53c5.2,34,20.3,61.8,15.7,95.9c-1.7,12.5-8.3,49-11,61.3C880.9,1017.2,920,1035.1,866.1,1107.5z"/>
		<path class="st6" d="M604.4,207.7c-5.8,4.6-33.4,8.8-39.4,13.1c-19.3,13.9-25,56-33.9,77.1c-33.5,79.3-104.7,174.1-94.3,224.4
			c-41.4-7.5-38.2-25.5-80.2-28.3c46.1-51.5,62.9-105.1,84.5-168.8c13.2-39.2,20.6-56.2,37.7-100.6c5.4-14.1,30.2-50.7,44.8-56.9
			c5-2.1,10.5-3,16-3.9l78.8-12.3C627.2,170.4,621.2,194.4,604.4,207.7z"/>
		
			<linearGradient id="SVGID_2_" gradientUnits="userSpaceOnUse" x1="253.9008" y1="-81.9615" x2="404.9008" y2="-100.9615" gradientTransform="matrix(3.14 0 0 3.15 -273.2701 575.138)">
			<stop  offset="0" style="stop-color:#A1C3FC"/>
			<stop  offset="1" style="stop-color:#78A9EF"/>
		</linearGradient>
		<path class="st7" d="M576.4,132c-6.5-1.3-7.5,6.9-13.7,9.1c-8.4,3.1-31.6,16.5-34.9,24.9c-18.5,47.6,2.7,65.3,36.4,141.9
			c20.5,46.7,69.6,75.2,115.9,96.5c14.4,6.6,29.5,12.5,41.8,22.5c12.3,10,21.6,25.4,19.7,41.1c44.9-11.8,101.5-64.9,137.1-94.6
			c-18.2-31.8-52.6-31.2-74.5-60.6c-14.4-19.3-29.7-38.1-48.2-53.5c-25.2-20.8-44.3-42-67.9-64.6c-15.7-15-14.9-28.7-33.5-40
			C640.3,146.1,592.8,135.3,576.4,132z"/>
		<path class="st8" d="M564.8,524.2c20-56,39.9-111.9,59.9-167.9c0.9-2.7,3-5.9,5.7-5.1"/>
		<path class="st9" d="M561.7,79.5c10.4,25.4,15.4,35.2,35.2,54.2c-10.4,15.3-31.6,28.9-45.2,34c-12.7-9.9-7.8-4.5-16-18.4
			c-3-5.1-5.5-10.7-10-14.5c-4.5-3.8-11.3-5.6-16.2-2.4C532,120.8,550.3,102.3,561.7,79.5z"/>
		<path class="st8" d="M535.4,119.6c0.8,7.8-9.6,11.1-17.5,11.5c-10.6,0.6-23.4,0.1-28.8-9c-5.3-8.9-0.1-20.1,5.1-29.1l30.4-52.6"/>
		<path class="st8" d="M527.8,99.6c3.9-1.5,6.5-5.1,8.5-8.8c5.2-9.8,7.5-20.8,6.4-31.9c-3.4-5.4-12.2-4.8-16.7-0.3
			c-4.5,4.5-5.8,11.3-6.1,17.7c-0.3,6.4-0.1,13-2.4,19C518.6,99.4,523.9,101,527.8,99.6z"/>
		<path class="st1" d="M540.2,128.6c-6.9,4.1-12.2,5.3-19.8,7.8c-3.6,1.2-10.5,1.7-14.3,1.8c-12.5,0.3-18.3-7.2-20.8-16.6
			s0-19.3,3.2-28.4c2.7-7.6-9-11.7-4.3-17.7c15-15.6,31.1-40.6,51.6-47.4c14.1-4.7,30.9-1.6,41.7,8.6s14.9,27.4,8.8,41
			c-3.2,7.1-8.6,12.9-14,18.5l-23.9,25.1C546,124.2,543.2,126.6,540.2,128.6z"/>
		<path class="st10" d="M538.7,72.7c4.5-10.5,0.9-22.3-8.2-26.2c-2-0.9-4.1-1.3-6.3-1.3c-7.6,0-15,5.3-18.4,13.3
			c-4.5,10.5-0.8,22.3,8.2,26.2c2,0.9,4.1,1.3,6.3,1.3C527.9,86,535.3,80.7,538.7,72.7z M524.1,48.4c1.7,0,3.5,0.3,5.1,1
			c7.5,3.2,10.5,13.2,6.6,22.1c-2.9,6.8-9.2,11.4-15.5,11.4c-1.7,0-3.5-0.3-5-1c-7.5-3.2-10.5-13.1-6.6-22.1
			C511.5,52.9,517.8,48.3,524.1,48.4L524.1,48.4z"/>
		<path class="st10" d="M552.6,206.2c2.4-12.8,3.5-18.8,9.5-30.3c-7.6,0.9-15.2,0.4-22.6-1.5c1.6,9.6,4,30.1,4,30.1
			S549.2,204.6,552.6,206.2z"/>
		<path class="st4" d="M566.3,264.3c0.7,7.5-0.3,15.1-1.3,22.6c-6.2,46.8-8.3,94-6.3,141.1c-15.8-22.7-18.2-52.1-16.5-79.7
			c1.7-27.6,7-55.2,4.7-82.8c-1.8-21.5-8.3-43.3-3.3-64.3c1.9,3,5.5,4.4,8.9,3.5C549,225,564.3,243.8,566.3,264.3z"/>
		<path class="st0" d="M605.7,169.1c-16,23-27.9,31-46.4,52c1-18.1-2.9-36.5-7.7-54c18.5-7.1,28.7-24.2,37-42.2
			c7.7,6.4,20.4,13.6,29.2,16.3C621.4,142.3,613.5,157.9,605.7,169.1z"/>
		<path class="st11" d="M579.2,106.7c30.2-12.2,57.2-54,57.8-89.4c0,0,0,0,0,0c0-0.9-0.7-1.6-1.5-1.6c-0.8,0-1.5,0.7-1.6,1.5
			c-0.6,34.3-26.7,74.7-55.8,86.6c-0.5,0.2-0.9,0.8-0.9,1.4c0,0.9,0.6,1.6,1.5,1.6C578.8,106.8,579,106.8,579.2,106.7z"/>
		
			<linearGradient id="SVGID_3_" gradientUnits="userSpaceOnUse" x1="262.4206" y1="-101.1182" x2="290.4206" y2="-58.1182" gradientTransform="matrix(3.14 0 0 3.15 -273.2701 575.138)">
			<stop  offset="0" style="stop-color:#A1C3FC"/>
			<stop  offset="1" style="stop-color:#78A9EF"/>
		</linearGradient>
		<path class="st12" d="M652.5,312.7c-6.8,25.5-20.5,97.7-25.1,123.7c-12.5,71.3-17.5,70-26.5,107.7c-24.4-17.2-42.2-15.4-63.6-35.9
			c18.8-60.8,32.4-95.7,48.3-162c9.7-40.2,20.4-112.6,25.5-147.4c4.1-28.4,2-42.8,31-46.1c25.3-2.9,45.3,38.7,44,63.4
			C683.4,265.8,665.3,264.8,652.5,312.7z"/>
		<path class="st10" d="M500.7,59.9c4.1-9.6,3.4-18.6-1.4-20.6s-12,3.8-16,13.1c-4.1,9.6-3.6,18.5,1.4,20.6c0.7,0.3,1.5,0.5,2.2,0.4
			C491.6,73.4,497.3,67.8,500.7,59.9z M498,42.1c2.8,1.2,3.4,8.3-0.2,16.5c-3.7,8.5-9.1,12.7-11.9,11.5s-3.4-8.3,0.2-16.5
			c3.3-7.6,8.1-11.7,10.9-11.7C497.4,41.9,497.7,42,498,42.1z"/>
		<path class="st0" d="M536,149.4c-4.9,8.5-4.3,8.5-9.2,17c-2.7,16,1.2,28.4,1.7,45.6c1.7-14.9,23.4-44.6,23.4-44.6
			S539.5,160.2,536,149.4z"/>
		<path class="st11" d="M626.7,24c3.6,23.2-11.1,45.4-27,64.5c-5,5.9-10.2,11.9-17.1,16.2s-15.9,6.7-24.2,5l3.9-6.7
			c3.2-5.5,6.4-11.5,4.9-17.5s-10.5-10.7-16.2-6.9c5-9.3,4.8-21.3-3.4-28.9s-33.1-10.8-39.1-1.9c-1.1-10.5-8.9-18.5,5-31.8h110.3
			C624.7,16.4,626.6,23,626.7,24z"/>
		<path class="st11" d="M867.2,1022.9c0.2-9.7-0.9-19.5-1.9-29c-1.1-10.3-2.2-20.9-1.8-31.3c0.6-13.9,4.2-27.8,7.6-41.2
			c3.3-12.8,6.7-25.9,7.6-39.3c1.7-24.2-4.6-48.2-10.7-71.4c-1.4-5.4-2.8-10.8-4.2-16.2c-10.8-44-15-89.4-12.6-134.6
			c1.2-22.2,4-44.9,6.7-66.9c6.5-53,13.3-107.8-2.1-159.3l-3,0.9c15.2,50.9,8.5,105.3,2,158c-2.7,22-5.5,44.8-6.7,67.1
			c-2.4,45.6,1.9,91.3,12.7,135.6c1.3,5.4,2.8,10.8,4.2,16.2c6,23,12.3,46.7,10.6,70.4c-0.9,13.1-4.3,26.1-7.5,38.7
			c-3.5,13.5-7.1,27.5-7.7,41.8c-0.5,10.6,0.7,21.4,1.8,31.7c1,9.4,2,19.1,1.9,28.6c-0.4,18.1-5.2,35.8-14,51.7l2.7,1.5
			C861.8,1059.7,866.8,1041.5,867.2,1022.9z"/>
		<path id="texture_4_-i1" class="st13" d="M750.4,327.7c0.2,0.5-0.1,1.1-0.6,1.3l0,0c-0.5,0.2-1.2,0-1.5-0.5l0,0
			c-0.2-0.6,0-1.2,0.5-1.5l0,0c0.5-0.2,1.2,0,1.5,0.5C750.4,327.5,750.4,327.6,750.4,327.7z M696.6,236.8c-0.4,0.5-1,0.7-1.6,0.4
			c-0.1,0-0.2-0.1-0.3-0.1c-0.5-0.3-0.6-0.9-0.4-1.4l0,0c0.4-0.4,1.1-0.8,1.6-0.4c0.1,0,0.2,0.1,0.3,0.1
			C696.7,235.7,696.9,236.3,696.6,236.8L696.6,236.8z M684.3,262.3L684.3,262.3c-0.7-0.3-1.1-1-0.7-1.5l0,0c0.2-0.5,0.8-0.8,1.4-0.6
			c0.6,0.2,1,0.8,0.8,1.5C685.4,262,684.9,262.3,684.3,262.3z M736,278.8c0.5,0.4,0.5,1.2,0,1.5c-0.4,0.4-1,0.4-1.4,0.1
			c-0.4-0.4-0.5-1-0.1-1.4C735,278.5,735.6,278.4,736,278.8L736,278.8z M716.8,297.5C716.8,297.6,716.8,297.6,716.8,297.5
			c0.4,0.5,0.4,1.1,0,1.5c-0.4,0.4-1,0.4-1.4,0.1c-0.4-0.4-0.5-1-0.1-1.4C715.7,297.3,716.3,297.2,716.8,297.5L716.8,297.5z
			 M642,237.5c0,0.6-0.4,1.1-1.3,1.2l0,0c-0.5-0.2-0.8-0.6-0.8-1.1l0,0c0-0.6,0.4-1,1-1.1C641.5,236.5,642,237,642,237.5L642,237.5z
			 M753.7,299.8L753.7,299.8c-0.5,0.3-1,0.1-1.3-0.3c-0.2-0.5-0.2-1.1,0.3-1.3c0.5-0.3,1-0.1,1.3,0.3
			C754.2,298.9,754.1,299.3,753.7,299.8z M735.1,313.5c0.5,0.4,0.5,1-0.3,1.3l0,0c-0.3,0.1-0.6,0-0.9-0.2c-0.4-0.4-0.5-1-0.1-1.4
			C734.2,312.9,734.8,313,735.1,313.5L735.1,313.5z M665.7,249.8c-0.3,0.7-0.8,1-1.2,0.9l0,0c-0.6,0-0.8-0.5-0.8-1.1l0,0
			c0-0.6,0.5-0.8,1.1-0.8C665.3,248.9,665.6,249.3,665.7,249.8L665.7,249.8z M743.6,357.3L743.6,357.3c-0.5,0.2-1-0.1-1.2-0.6l0,0
			c-0.2-0.5,0.2-1,0.6-1.2l0,0c0.5-0.2,1,0.2,1.2,0.6C744.5,356.6,744.1,357.1,743.6,357.3z M709.2,277.9c-0.5-0.4-0.7-0.9-0.3-1.4
			c0.3-0.5,0.9-0.7,1.3-0.3c0.5,0.3,0.6,0.9,0.3,1.4C710.3,278,709.7,278.1,709.2,277.9z M697.6,298.9c-0.5-0.4-0.7-0.9-0.3-1.4
			c0.4-0.5,0.9-0.7,1.4-0.3l0,0c0.5,0.4,0.7,0.9,0.3,1.4C698.6,299,698.1,299.2,697.6,298.9z M746.9,344.1c0.2,0.5,0.3,0.8-0.2,1
			l0,0c-0.3,0.1-0.9,0.1-1-0.1l0,0c-0.1-0.3-0.1-0.9,0.2-1l0,0C746.2,343.9,746.8,343.9,746.9,344.1L746.9,344.1z M687.2,311.5
			c-0.2,0.1-0.7-0.3-0.6-0.6c-0.1-0.2,0.3-0.7,0.6-0.6l0,0c0.4,0.1,0.7,0.3,0.6,0.6C687.7,311.2,687.6,311.6,687.2,311.5z
			 M754.4,378.6c0.1,0.2,0,0.6-0.5,0.8l0,0c-0.2,0.1-0.7-0.3-0.8-0.5c-0.1-0.2,0.3-0.7,0.5-0.8l0,0
			C753.8,377.9,754.3,378.3,754.4,378.6L754.4,378.6z M763.2,274.4c-0.4,0.5-1.1,0.8-1.5,0.4c-0.5-0.4-0.8-1.2-0.4-1.6
			s1.2-0.8,1.6-0.4S763.6,273.9,763.2,274.4L763.2,274.4z M749.9,298.9c-0.4,0.5-1,0.7-1.6,0.4c-0.4-0.4-0.8-1.2-0.4-1.6
			c0.4-0.4,1.2-0.8,1.6-0.4S750.2,298.4,749.9,298.9L749.9,298.9z M736.7,323.2c-0.4,0.5-1.1,0.8-1.5,0.4s-0.8-1.2-0.4-1.6
			s1.2-0.8,1.6-0.4S737.1,322.8,736.7,323.2L736.7,323.2z M756.4,356.9c-0.4,0.5-1.1,0.2-1.6-0.2s-0.2-1.1,0.2-1.6s1.1-0.2,1.6,0.2
			C757.1,355.7,756.8,356.4,756.4,356.9z M706.8,269.4c-0.2,0.7-0.8,1.2-1.5,1.3l0,0c-0.6,0-0.9-0.8-0.9-1.4
			c0.1-0.7,0.6-1.2,1.3-1.2C706.3,268.1,706.8,268.7,706.8,269.4L706.8,269.4z M704,297.2c-0.3,0.7-0.6,1.2-1.6,1
			c-0.6,0-0.9-0.8-0.9-1.4l0,0c0.4-0.5,0.8-0.9,1.4-0.9l0,0C703.7,295.8,704,296.5,704,297.2L704,297.2z M759,375.5
			c0.3,0.5,0.1,1.1-0.3,1.4l0,0c-0.1,0.1-0.1,0.1-0.2,0.2c-0.5,0.3-1.1,0.1-1.4-0.3c-0.5-0.4-0.2-1.1,0.2-1.6s1.1-0.2,1.6,0.2
			C758.9,375.4,759,375.4,759,375.5z M724.3,267.6c-0.6-0.2-1-0.8-0.9-1.4c0-0.6,0.8-1,1.4-0.9s0.9,0.8,0.9,1.4
			C725.7,267.3,724.9,267.6,724.3,267.6z M720.1,295.1c-0.6,0-0.9-0.8-0.9-1.4c0.2-0.6,0.7-1,1.4-0.9c0.6,0,0.9,0.8,0.9,1.4
			C721.5,294.8,721,295,720.1,295.1z M717.5,321.9c-0.2,0.5-0.8,0.8-1.3,0.6l0,0c-0.6,0-1-0.8-0.9-1.4s0.8-1,1.4-0.9
			s0.9,0.8,0.9,1.4C717.6,321.6,717.6,321.8,717.5,321.9z M760.6,324.3c-0.4,0.5-1,0.7-1.6,0.4c-0.4-0.4-0.8-1.2-0.4-1.6
			s1.1-0.8,1.6-0.4l0,0C760.6,323.1,761,323.8,760.6,324.3L760.6,324.3z M746.4,348.2c-0.4,0.5-1,0.7-1.6,0.4
			c-0.4-0.4-0.8-1.1-0.4-1.6l0,0c0.4-0.4,1.2-0.8,1.6-0.4S746.8,347.8,746.4,348.2L746.4,348.2z M709.1,311.6c0,0.6-0.3,0.7-0.7,1
			l0,0c-0.6,0-1-0.2-1-0.8c0-0.6,0.2-1,0.8-1S709.1,311,709.1,311.6L709.1,311.6z M750.2,328.5c-0.2,0.4-0.6,0.6-1,0.5l0,0
			c0,0-0.1,0-0.1,0c-0.4-0.2-0.6-0.6-0.4-1c0.2-0.4,0.6-0.6,1-0.4C750.1,327.6,750.3,328.1,750.2,328.5L750.2,328.5z M743.3,348.2
			c0,0.6-0.5,0.8-1.1,0.2l0,0c-0.4-0.2-0.6-0.6-0.5-1l0,0c0.2-0.4,0.6-0.6,1-0.5C743.2,347.2,743.4,347.7,743.3,348.2L743.3,348.2z"
			/>
		
			<ellipse transform="matrix(0.2713 -0.9625 0.9625 0.2713 322.9984 599.9153)" class="st10" cx="557.7" cy="86.6" rx="27.8" ry="27.6"/>
		<path class="st10" d="M560,87.3L560,87.3c0.2-0.8-0.2-1.5-1-1.7c-0.8-0.2-1.5,0.2-1.7,1c-4.4,15.7-20.8,24.9-36.5,20.6l-9.1-2.6
			c-0.8-0.2-1.5,0.2-1.8,1c-0.2,0.8,0.2,1.5,1,1.8l9.1,2.6C537.2,114.6,555.1,104.5,560,87.3z"/>
		<path class="st14" d="M558.9,86c1.5,0.4,3-0.6,3.4-2.1c1.2-4.8,2.8-10.2,4.5-15.8c7.5-24.7,16-52.7-0.8-65.9
			c-0.1-0.1-0.3-0.2-0.5-0.3c-8.3-4.3-17.8-1.2-26,8.4c-1,1.2-0.9,3,0.3,4c0,0,0,0,0,0c1.2,1,3,0.8,4-0.4c3.7-4.3,11-11,18.9-7.1
			c13.5,10.9,5.6,36.8-1.3,59.6c-1.7,5.7-3.4,11.1-4.6,16.1C556.5,84.1,557.4,85.6,558.9,86L558.9,86z"/>
		
			<ellipse transform="matrix(0.2713 -0.9625 0.9625 0.2713 322.9984 599.9153)" class="st4" cx="557.7" cy="86.6" rx="19.2" ry="19.1"/>
		<path class="st4" d="M506.4,105.4c0.7-2.8,3.5-4.4,6.2-3.7l6.7,1.9c2.6,0.8,4.1,3.5,3.5,6.2c-0.7,2.8-3.5,4.4-6.2,3.7l-6.7-1.9
			C507.2,110.7,505.7,108,506.4,105.4z"/>
		<path class="st15" d="M258.8,559.2H471v-30.9H258.8V559.2z"/>
		<path class="st16" d="M60.8,559.2h263.7l-60.8-218H0L60.8,559.2z"/>
		<ellipse class="st15" cx="154.4" cy="453.9" rx="22.7" ry="22.6"/>
	</g>
</g>
</svg>
