<svg xmlns="http://www.w3.org/2000/svg" viewBox="0 0 50 43.823"><defs><style>.cls-1{fill:#8dceb8;}</style></defs><g id="Layer_2" data-name="Layer 2"><g id="Layer_1-2" data-name="Layer 1"><path class="cls-1" d="M49,16.686c-11.658,0-20.795,5.653-20.851,12.881a19.81,19.81,0,0,0-4.288,7.155,24.861,24.861,0,0,0-3.139-10.694.963.963,0,0,0,.021-.107,24.3,24.3,0,0,0-.829-6.307A18.7,18.7,0,0,0,37.321,1a1,1,0,0,0-1-1c-10.05,0-18.432,5.056-20.25,11.72A18.954,18.954,0,0,0,1,3.9a1,1,0,0,0-1,1c0,11.833,8.413,21.512,18.918,22,2.2,3.762,3.467,8.544,2.971,15.859a.753.753,0,0,0,.011.083,1.158,1.158,0,0,0,.08.379,1,1,0,0,0,.1.164.883.883,0,0,0,.119.146.908.908,0,0,0,.146.114,1.027,1.027,0,0,0,.179.1c.027.011.046.031.074.04a.782.782,0,0,0,.159.023c.023,0,.042.017.066.019l.068,0h0a.8.8,0,0,0,.443-.119.942.942,0,0,0,.19-.121.888.888,0,0,0,.092-.092.9.9,0,0,0,.126-.171.921.921,0,0,0,.062-.126c.011-.027.03-.049.039-.078,1.7-5.563,2.857-9.315,5.957-12.324a19.14,19.14,0,0,0,3.643.358A17.949,17.949,0,0,0,44.59,27.326c3.389-2.662,5.41-6.267,5.41-9.64A1,1,0,0,0,49,16.686ZM35.27,2.036a16.7,16.7,0,0,1-15.978,15.61,22.993,22.993,0,0,0-1.58-3.429C17.876,7.7,25.594,2.4,35.27,2.036ZM2.048,5.96C10.4,6.515,17.21,13.607,18.5,22.769a59.714,59.714,0,0,0-5.219-5.518q-.775-.752-1.557-1.522a1,1,0,1,0-1.407,1.421c.525.52,1.05,1.03,1.571,1.536a51.387,51.387,0,0,1,5.6,6.054C9.074,23.528,2.5,15.653,2.048,5.96ZM43.355,25.755a16.042,16.042,0,0,1-11.431,3.3,32.989,32.989,0,0,1,7.488-3.634,1,1,0,1,0-.683-1.879,34.586,34.586,0,0,0-8.244,4.045c1.588-4.861,8.727-8.583,17.433-8.873A11.793,11.793,0,0,1,43.355,25.755Z"/></g></g></svg>