<svg xmlns="http://www.w3.org/2000/svg" viewBox="0 0 7.721 8.466"><defs><style>.cls-1{fill:#161f6d;}</style></defs><g id="Layer_2" data-name="Layer 2"><g id="Layer_1-2" data-name="Layer 1"><path class="cls-1" d="M5.373,0A2.349,2.349,0,0,0,3.392,1.092a1.665,1.665,0,0,0-.5-.079h0A1.648,1.648,0,0,0,1.252,2.657a1.374,1.374,0,0,0,.559,2.63h.636V6.546H1.876a.961.961,0,0,0-.917-.7.961.961,0,0,0,0,1.921.963.963,0,0,0,.917-.7h.835a.265.265,0,0,0,.266-.264V5.287h1.8v1.3a.96.96,0,1,0,.53,0v-1.3h1.04a1.374,1.374,0,0,0,1.2-2.049,2.338,2.338,0,0,0,.177-.889h0A2.346,2.346,0,0,0,5.373,0Zm0,.529A1.816,1.816,0,0,1,7.007,3.143a.266.266,0,0,0,.023.272.845.845,0,0,1-.685,1.343H1.811A.846.846,0,0,1,1.6,3.094.264.264,0,0,0,1.791,2.8a1.165,1.165,0,0,1-.011-.145,1.113,1.113,0,0,1,1.61-1,.264.264,0,0,0,.355-.118h0A1.817,1.817,0,0,1,5.373.529ZM4.367,2.134A2.262,2.262,0,0,0,3.135,2.5a.265.265,0,0,0,.281.449l.008-.006a1.731,1.731,0,0,1,1.885,0,.265.265,0,0,0,.3-.438L5.6,2.5A2.262,2.262,0,0,0,4.367,2.134Zm0,.713a1.548,1.548,0,0,0-.924.306.265.265,0,0,0,.307.432l.01-.008a1.016,1.016,0,0,1,1.213,0,.265.265,0,0,0,.318-.424A1.543,1.543,0,0,0,4.367,2.847Zm0,.765a.78.78,0,0,0-.619.307.265.265,0,0,0,.409.337l.013-.017a.247.247,0,0,1,.2-.1.244.244,0,0,1,.2.1A.265.265,0,0,0,5,3.945l-.019-.024A.775.775,0,0,0,4.367,3.612ZM.959,6.38a.431.431,0,1,1-.43.429A.425.425,0,0,1,.959,6.38Zm4.082.7a.431.431,0,1,1-.431.432A.426.426,0,0,1,5.041,7.075Z"/></g></g></svg>