<svg xmlns="http://www.w3.org/2000/svg" xmlns:xlink="http://www.w3.org/1999/xlink" viewBox="0 0 214 516.17"><defs><style>.cls-1{fill:#151a4f;}.cls-2{fill:url(#linear-gradient);}.cls-3{fill:url(#linear-gradient-2);}.cls-4{fill:#428dfc;}.cls-5{fill:url(#linear-gradient-3);}.cls-6{fill:url(#linear-gradient-4);}.cls-7{fill:#fff;opacity:0.86;isolation:isolate;}.cls-8{fill:url(#linear-gradient-5);}.cls-9{fill:#ffbeb6;}.cls-10{fill:url(#linear-gradient-6);}.cls-11{fill:url(#linear-gradient-7);}.cls-12{fill:#a1c3fc;}.cls-13{fill:url(#linear-gradient-8);}.cls-14{fill:#1c2868;}.cls-15{fill:#23286b;}</style><linearGradient id="linear-gradient" x1="-212.89" y1="440.24" x2="-219.98" y2="440.24" gradientTransform="matrix(-1.03, 0.48, 0.49, 1.06, -255.64, -327.58)" gradientUnits="userSpaceOnUse"><stop offset="0" stop-color="#23286b"/><stop offset="1" stop-color="#151a4f"/></linearGradient><linearGradient id="linear-gradient-2" x1="6119.17" y1="-5347.64" x2="6924.72" y2="-5841.61" gradientTransform="translate(593.46 8.67) rotate(180) scale(0.07)" gradientUnits="userSpaceOnUse"><stop offset="0.13" stop-color="#428dfc"/><stop offset="1" stop-color="#1d72d8"/></linearGradient><linearGradient id="linear-gradient-3" x1="5117.32" y1="-3932.8" x2="6613.42" y2="-3826.57" gradientTransform="translate(593.46 8.67) rotate(180) scale(0.07)" xlink:href="#linear-gradient"/><linearGradient id="linear-gradient-4" x1="6492.18" y1="-4354.4" x2="7777.83" y2="-4354.4" gradientTransform="translate(593.46 8.67) rotate(180) scale(0.07)" xlink:href="#linear-gradient"/><linearGradient id="linear-gradient-5" x1="6849.06" y1="-1268.07" x2="6915.95" y2="-732.96" gradientTransform="translate(593.46 8.67) rotate(180) scale(0.07)" gradientUnits="userSpaceOnUse"><stop offset="0" stop-color="#ffbeb6"/><stop offset="1" stop-color="#f2a19c"/></linearGradient><linearGradient id="linear-gradient-6" x1="7412.93" y1="-1931.73" x2="5999.72" y2="-2326.82" gradientTransform="translate(593.46 8.67) rotate(180) scale(0.07)" gradientUnits="userSpaceOnUse"><stop offset="0" stop-color="#a1c3fc"/><stop offset="0.7" stop-color="#81aef2"/><stop offset="1" stop-color="#78a9ef"/></linearGradient><linearGradient id="linear-gradient-7" x1="5637.92" y1="-1150.24" x2="6108.47" y2="-1719.7" xlink:href="#linear-gradient-5"/><linearGradient id="linear-gradient-8" x1="7774.29" y1="-85.61" x2="7204.36" y2="-722.59" gradientTransform="translate(593.46 8.67) rotate(180) scale(0.07)" xlink:href="#linear-gradient"/></defs><g id="Layer_2" data-name="Layer 2"><g id="Layer_1-2" data-name="Layer 1"><path class="cls-1" d="M156.16,8.68l8.57-6a2,2,0,0,1,3.12.75l29.44,63.3a2,2,0,0,1-1.43,2.88l-10.14,2.66a2.79,2.79,0,0,1-3.13-1.49L155.28,12A2.79,2.79,0,0,1,156.16,8.68Z"/><path class="cls-2" d="M165.25,2.3,169.84.16a1.83,1.83,0,0,1,2.4.92L201.9,64.84a1.81,1.81,0,0,1-.85,2.42l-4.59,2.14a1.83,1.83,0,0,1-2.4-.92L164.41,4.72A1.81,1.81,0,0,1,165.25,2.3Z"/><g id="woman-i2"><path id="R_shoe-i2" data-name="R shoe-i2" class="cls-3" d="M53.82,406.63,38.1,450.57H149s-5.69-11-24.65-19.14-36.66-24.8-36.66-24.8H53.82"/><path id="L_shoe-i2" data-name="L shoe-i2" class="cls-4" d="M17.13,469.65.49,516.17H117.94s-6-11.64-26.1-20.26S53,469.66,53,469.66H17.13"/><path id="R_trousers-i2" data-name="R trousers-i2" class="cls-5" d="M102.72,174.47s16.45,49.1,25.22,72.69c9,24.2,11.48,37.29-3.26,70.27-11.63,26-37,89.2-37,89.2H57a97.06,97.06,0,0,1,2.36-44.46c7.1-22.53,12.42-19.57,14.2-36.16s20.11-27.87,8.28-55.14-31.46-23-50.92-98.07Z"/><path id="L_trousers-i2" data-name="L trousers-i2" class="cls-6" d="M17.12,469.65H53S108.63,344.5,111.23,319s.52-55.78-3.12-80.75c-.44-3-2.85-40.7-3.35-43.61a262.94,262.94,0,0,0-30.88-.34c-1.78,0-21-.12-26.18-.58-5.27,0-10.22-.31-14.77-.75.07,12.63,2.55,29.48,10.29,51.16,20.76,58.24,5.18,66.56-1.56,84.18s-10.38,28.38-8.84,45-6.21,12.23-10.38,33.77S17.12,469.65,17.12,469.65Z"/><path id="texture-i2" class="cls-7" d="M73,228.54a.25.25,0,0,1,.48-.1.25.25,0,0,1-.19.3h0a.24.24,0,0,1-.29-.2Zm-1.22-5.92a.22.22,0,0,1,.16-.28h0a.25.25,0,0,1,.3.19.27.27,0,0,1-.2.3.24.24,0,0,1-.29-.2ZM94.05,214a.24.24,0,0,1,.34,0,.23.23,0,0,1,.09.31v0a.25.25,0,0,1-.35.07.24.24,0,0,1-.07-.35ZM60.41,225.28a.25.25,0,0,1,.29-.2.26.26,0,0,1,.19.29.25.25,0,0,1-.29.19h0a.22.22,0,0,1-.19-.26Zm22.75-4.66a.26.26,0,1,1-.06.36A.27.27,0,0,1,83.16,220.62ZM46.63,248a.47.47,0,0,1,.57-.35h0a.45.45,0,0,1,.33.56h0a.48.48,0,0,1-.56.35s0,0,0,0a.47.47,0,0,1-.33-.56Zm2.9-11.11a.47.47,0,0,1,.56-.34h0a.49.49,0,0,1,.34.59.47.47,0,0,1-.58.34h0a.49.49,0,0,1-.33-.59Zm42.14,15.35a.47.47,0,0,1,.65.16.47.47,0,0,1-.15.63h0a.49.49,0,0,1-.66-.16.47.47,0,0,1,.18-.64Zm-5.77-9.92a.45.45,0,0,1,.63.18h0a.47.47,0,1,1-.81.49.51.51,0,0,1,.18-.67Zm-5.79-9.9a.5.5,0,0,1,.66.18.45.45,0,0,1-.15.62s0,0,0,0a.46.46,0,0,1-.64-.15h0a.48.48,0,0,1,.16-.66Zm-5.76-9.9a.45.45,0,0,1,.63.18h0a.47.47,0,0,1-.16.65.48.48,0,0,1-.65-.17.46.46,0,0,1,.17-.65Zm-7.67,33a.48.48,0,0,1,.4-.55.47.47,0,0,1,.55.39.48.48,0,0,1-.39.56h0a.49.49,0,0,1-.55-.4Zm-1.55-11.37a.47.47,0,0,1,.39-.55.48.48,0,0,1,.55.4.47.47,0,0,1-.39.55h0a.47.47,0,0,1-.54-.4Zm-1.56-11.36a.51.51,0,0,1,.42-.55.48.48,0,0,1,.13,1,.51.51,0,0,1-.55-.41Zm41.2.53a.46.46,0,0,1,.64-.1l0,0a.47.47,0,0,1,.1.65h0a.48.48,0,0,1-.66.1.51.51,0,0,1-.09-.68Zm-9.12-6.92a.47.47,0,0,1,.66-.1h0a.49.49,0,0,1,.1.67.51.51,0,0,1-.68.08.45.45,0,0,1-.09-.64Zm-9.11-6.94a.48.48,0,0,1,.66-.1.47.47,0,0,1,.1.66,0,0,0,0,1,0,0,.45.45,0,0,1-.63.1l0,0a.47.47,0,0,1-.1-.66Zm-30.9,37.29a.42.42,0,1,1,.84,0h0a.42.42,0,0,1-.41.43A.41.41,0,0,1,55.64,256.74Zm-.42-10.23a.43.43,0,0,1,.41-.44.42.42,0,1,1-.41.46v0Zm-.42-10.24a.31.31,0,0,1,0-.23h0a.42.42,0,0,1,.34-.2.43.43,0,0,1,.45.41h0a.41.41,0,0,1-.4.43.36.36,0,0,1-.29-.11.33.33,0,0,1-.16-.3Zm40,2a.43.43,0,0,1,.6,0h0a.42.42,0,0,1,.05.58h0a.44.44,0,0,1-.61,0,.45.45,0,0,1,0-.6Zm-7.51-6.93a.43.43,0,0,1,.6,0h0a.4.4,0,0,1,0,.57v0a.42.42,0,0,1-.59,0,.44.44,0,0,1,0-.6Zm-7.51-6.94a.41.41,0,0,1,.59,0h0a.41.41,0,0,1,.06.56l0,0a.43.43,0,0,1-.6,0h0a.42.42,0,0,1,0-.59ZM42,229.17a.45.45,0,0,1,.55-.25.43.43,0,0,1,.25.55.42.42,0,0,1-.56.23A.42.42,0,0,1,42,229.17Zm32.25,17.7a.45.45,0,0,1,.56.22.43.43,0,0,1-.77.36.44.44,0,0,1,.21-.58ZM70,237.58a.46.46,0,0,1,.57.22.43.43,0,0,1-.21.56.4.4,0,0,1-.54-.19s0,0,0,0a.43.43,0,0,1,.19-.57Zm-4.28-9.27a.4.4,0,0,1,.54.18v0a.41.41,0,1,1-.75.35h0a.4.4,0,0,1,.18-.54Zm35.08-9.78a.44.44,0,0,1,.54-.26.43.43,0,0,1,.25.54s0,0,0,0a.39.39,0,0,1-.5.25h0a.42.42,0,0,1-.27-.53v0ZM91.19,215a.43.43,0,0,1,.56-.23.43.43,0,0,1,.24.53.43.43,0,0,1-.55.25.41.41,0,0,1-.26-.52,0,0,0,0,1,0,0ZM42.13,235.53a.25.25,0,0,1,.29-.21.25.25,0,0,1,.21.28.25.25,0,0,1-.28.22h0a.26.26,0,0,1-.22-.29Zm.91-6a.25.25,0,0,1,.29-.21.24.24,0,0,1,.21.28.25.25,0,0,1-.28.22.27.27,0,0,1-.22-.29Zm23.82-.27a.25.25,0,1,1,0,.35.25.25,0,0,1,0-.35Zm-3.56-4.87a.25.25,0,0,1,.34,0h0a.25.25,0,0,1,0,.35h0a.28.28,0,0,1-.36,0,.27.27,0,0,1,.06-.36ZM54,231.94a.23.23,0,0,1,.16-.29h0a.24.24,0,0,1,.3.17h0a.27.27,0,0,1-.18.31.25.25,0,0,1-.3-.19Zm-12.17,11a.26.26,0,0,1,.26-.28h0a.27.27,0,0,1,.29.26v0a.26.26,0,0,1-.25.28h0a.29.29,0,0,1-.3-.28ZM41.66,236a.26.26,0,0,1,.26-.28h0a.29.29,0,1,1-.27.31v0Zm-.21-6.88a.29.29,0,1,1,.57,0s0,0,0,0a.3.3,0,0,1-.27.25.28.28,0,0,1-.3-.28Zm26.89,1.66a.3.3,0,0,1,.4,0,.26.26,0,0,1,0,.39.26.26,0,0,1-.37,0l0,0a.3.3,0,0,1,0-.41Zm-5-4.72a.32.32,0,0,1,.41,0,.28.28,0,0,1,0,.4.28.28,0,0,1-.4,0h0a.31.31,0,0,1,0-.42Zm-8.62,10.34a.27.27,0,0,1,.12-.37h0a.28.28,0,0,1,.36.15.27.27,0,0,1-.13.37h0l-.12,0a.26.26,0,0,1-.25-.16ZM52,229.74a.32.32,0,0,1,.39.15.31.31,0,0,1-.16.38.28.28,0,0,1-.36-.15h0a.3.3,0,0,1,.14-.38Zm10.23,35.85a.49.49,0,0,1,.66.22.49.49,0,0,1-.23.65.5.5,0,0,1-.66-.23.48.48,0,0,1,.23-.64Zm-5-10.69a.49.49,0,1,1-.24.65.5.5,0,0,1,.24-.65Zm-5.07-10.67a.49.49,0,1,1,.45.87h0a.49.49,0,1,1-.43-.87Zm-5.05-10.68a.47.47,0,0,1,.64.23h0a.49.49,0,0,1-.89.42.5.5,0,0,1,.23-.65Zm48.2-4.62a.5.5,0,0,1,.63-.29.49.49,0,0,1,.3.61.51.51,0,0,1-.64.31.51.51,0,0,1-.29-.63Zm-11.11-4a.49.49,0,0,1,.62-.3.48.48,0,0,1,.3.62h0a.49.49,0,0,1-.92-.32Zm-11.1-4a.48.48,0,0,1,.6-.31h0a.53.53,0,0,1,.31.64.5.5,0,0,1-.63.29.48.48,0,0,1-.3-.61A0,0,0,0,1,73.07,221Zm4.66,26.44a.47.47,0,0,1,.67,0h0a.5.5,0,0,1,0,.69.52.52,0,0,1-.7,0,.49.49,0,0,1,0-.7ZM69,239.52a.46.46,0,0,1,.66-.05s0,0,0,0a.48.48,0,0,1,0,.68h0a.48.48,0,0,1-.69,0h0a.46.46,0,0,1-.05-.66l0,0Zm-8.76-7.94a.49.49,0,0,1,.7,0,.49.49,0,0,1,0,.68.47.47,0,0,1-.67,0h0a.5.5,0,0,1,0-.7Zm13.77,23a.48.48,0,0,1,.69,0,.49.49,0,0,1-.68.71.48.48,0,0,1,0-.69Zm-8.39-8.25a.52.52,0,0,1,.71,0,.51.51,0,0,1,0,.69.49.49,0,0,1-.69,0,.5.5,0,0,1,0-.69Zm-8.35-8.25a.48.48,0,1,1,.68.68.48.48,0,1,1-.68-.68Zm-8.39-8.25a.49.49,0,0,1,.68,0h0a.5.5,0,0,1,0,.69.46.46,0,0,1-.66,0l0,0a.47.47,0,0,1,0-.67Zm-3.07,22.35a.5.5,0,0,1,.65.26.48.48,0,0,1-.27.63.47.47,0,0,1-.63-.24h0a.5.5,0,0,1,.25-.65Zm36.1-20.78a.49.49,0,0,1,.62-.27s0,0,0,0a.49.49,0,0,1,.27.63.5.5,0,0,1-.64.28.48.48,0,0,1-.27-.63v0ZM71,227a.48.48,0,0,1,.61-.27h0a.49.49,0,1,1-.64.28v0Zm-8.34,10.86a.35.35,0,0,1,.48-.14l0,0a.38.38,0,0,1,.12.51.37.37,0,0,1-.63-.39Zm-7.47-4.77a.36.36,0,0,1,.5-.13h0a.37.37,0,0,1,.12.51.37.37,0,0,1-.63-.39Zm-7.47-4.78a.38.38,0,0,1,.51-.12.39.39,0,0,1,.12.52.37.37,0,0,1-.51.11.36.36,0,0,1-.12-.51Zm-.87,19.42a.37.37,0,0,1,.51.08h0a.38.38,0,0,1-.09.51.37.37,0,0,1-.51-.08.36.36,0,0,1,.06-.5Zm-5.08-7.28a.35.35,0,0,1,.49.09h0a.37.37,0,0,1-.08.51h0a.4.4,0,0,1-.53-.1.37.37,0,0,1,.11-.51Zm1-4.29a.3.3,0,0,1,.4-.17h0a.31.31,0,0,1,.19.39s0,0,0,0a.32.32,0,0,1-.42.19h0a.32.32,0,0,1-.18-.42,0,0,0,0,1,0,0Z"/><path id="neck-i2" class="cls-8" d="M89.81,70.88a78.7,78.7,0,0,0,2.92,28.35S81.83,86.6,76.61,83.72l-3.06-14,16.57.26Z"/><path id="face-i2" class="cls-9" d="M67.65,64.62c3.1.61,6.56,3.92,8.38,8.6,2.18,0,3.69,0,3.69,0,32.09-3.06,24.84-32.29,24.84-32.29,2.85-7,2.67-8.66-5.3-8.8-6-.09-15.88-8.24-15.88-8.24a3.18,3.18,0,0,0-.77-.47,56.88,56.88,0,0,1-3.93,19.36C74.08,54,71.56,55.19,67.43,55S60.56,63.25,67.65,64.62Z"/><path id="sweater-i2" class="cls-10" d="M21,226s41,19.43,94.33-39.36L92.7,99.18c-.65-.74-11-12.68-16.08-15.47l-.18-.79c-1.53-1.35-3.12-2.81-4.79-4.34A129.54,129.54,0,0,0,38,120c-14,26.93-9,36-16.51,51.85S3.46,207.2,21,226Z"/><path id="L_hand-i2" data-name="L hand-i2" class="cls-11" d="M164.73,110.21l17.43,18.46A97.82,97.82,0,0,1,202.65,82.9c16.26-21,12.6-31.58,4.24-41.76s-9.66-5.61-11.5,3S189.84,63.77,186,66.2s-4.91-6.33-10.44-8.67-6.4,1.28-4.52,3.06a93.09,93.09,0,0,1,10.83,13.35c3.35,5.2,3.93,6.26-2.31,15.87A196.7,196.7,0,0,1,164.73,110.21Z"/><path id="L_sleeve-i2" data-name="L sleeve-i2" class="cls-12" d="M105.19,201.57c26.91,5.16,42.67-7.52,49.05-13.94s11.32-9.18,27.76-13.95,21.7-22.16,21.7-22.16l-42.56-45.18s-1.78,3.26-13.28,15.15-15.79,13.66-31.67,4.5S92.72,99.22,92.72,99.22a.05.05,0,0,0,0,0l-.09-.09-9.19-9.86-.09-.07a43.46,43.46,0,0,0-6.72-5.44l.28-1.5L62.36,66.64v.68C33.87,97,64,193.69,105.19,201.57Z"/><ellipse id="hair-i2" class="cls-13" cx="31.88" cy="31.22" rx="15.01" ry="15.04"/><path id="nouth-i2" class="cls-14" d="M99,50a5.78,5.78,0,0,0,8-1.77,5.84,5.84,0,0,0,.9-3.28c0-.88-1.39-1-1.37-.12a4.41,4.41,0,0,1-6.72,4c-.76-.46-1.57.67-.8,1.13Z"/><path id="hair-2-i2" class="cls-15" d="M6.71,96c5.25-6.54,13.88-8.78,20-13.94a35.28,35.28,0,0,0,3.82-4.29c.19-.29.38-.55.56-.85,0,0,0,0,.06-.05,3.67-5.56,3.34-10.73,3.48-21a27.85,27.85,0,0,1,1.54-8.48A18.33,18.33,0,0,1,18,43.85c-.55-.47.24-1.26.8-.8a17.11,17.11,0,0,0,17.88,3A41.18,41.18,0,0,1,82.58,20.45a56.55,56.55,0,0,1-3.9,22.31C74.09,54,71.57,55.18,67.44,55s-6.89,8.29.23,9.67c4.6.89,10,7.76,9.64,16.24,0,.4.06.78,0,1.19-.27,13.5-19.49,28.87-5.56,40.94.55.48-.25,1.27-.79.8a14.85,14.85,0,0,1-4.84-15.15A67.19,67.19,0,0,1,71.6,94.38c-.31.36-.62.71-.95,1.07a27.23,27.23,0,0,0-5.74,29.44S29.79,135,6.15,119.14c0,0-6.89-15.18,11.24-29.22,1.61-1.24,3-2.37,4.33-3.46-2.1,1.15-4.28,2.26-6.43,3.6a29.87,29.87,0,0,0-14.1,27.42c0,.72-1.08.72-1.12,0A31.27,31.27,0,0,1,6.71,96Z"/></g></g></g></svg>