<svg xmlns="http://www.w3.org/2000/svg" viewBox="0 0 139.15 25"><defs><style>.cls-1{fill:#8dceb8;}.cls-2{fill:#161f6d;}</style></defs><g id="Layer_2" data-name="Layer 2"><g id="Layer_1-2" data-name="Layer 1"><path class="cls-1" d="M27.71,11.11,26.43,9.82h0L17.86,1.25a1.8,1.8,0,0,0-2.45,0L6.84,9.82h0L5.56,11.11a1.76,1.76,0,0,0,0,2.51L6.84,14.9h0l7.07,7.15c.34.34-3.57,1.73-3.13,1.72.34.19,3.93,2.85,7.08-.3l8.57-8.57h0l1.28-1.28A1.76,1.76,0,0,0,27.71,11.11Zm-5,2.45-6.08,6.08-6.1-6.11a1.65,1.65,0,0,1,0-2.34l6.1-6.1,6.08,6.08A1.79,1.79,0,0,1,22.74,13.56Z"/><path class="cls-2" d="M22.68,11.11,21.39,9.82h0L14.13,2.56C15.21,1.61,15.79.37,17.32.89c-2.82-1.08-5.17-1.42-6.94.36L1.81,9.82h0L.52,11.11a1.78,1.78,0,0,0,0,2.51L1.81,14.9h0l8.57,8.57a1.76,1.76,0,0,0,2.44,0l8.57-8.57h0l1.29-1.28A1.78,1.78,0,0,0,22.68,11.11Zm-5,2.42-6.11,6.11L5.5,13.56a1.7,1.7,0,0,1,0-2.4l6.07-6.07,6.11,6.1A1.65,1.65,0,0,1,17.68,13.53Z"/><polygon class="cls-1" points="14.56 2.14 17.17 4.53 13.95 7.76 11.43 5.24 14.56 2.14"/><path class="cls-2" d="M50.72,13.28a5.87,5.87,0,0,1-11.73,0,5.87,5.87,0,0,1,11.73,0Zm-3.11,0a2.77,2.77,0,1,0-5.52,0,2.77,2.77,0,1,0,5.52,0Z"/><path class="cls-2" d="M56,7.77,56,9A2.54,2.54,0,0,1,56,9.8h0a4.39,4.39,0,0,1,3.79-2.33c2.48,0,3.83,1.52,3.83,4.42v6.89h-3.3V12.44c0-1.08-.31-2-1.5-2a2.59,2.59,0,0,0-2.57,2.84v5.48h-3.3v-11Z"/><path class="cls-2" d="M66.4,7.77h3l.07,1.08a6.69,6.69,0,0,0,0,.73,3.84,3.84,0,0,1,3.26-2.11,3.18,3.18,0,0,1,.7.06v3.22a1.6,1.6,0,0,0-.73-.14,3.23,3.23,0,0,0-3,3.48v4.69H66.4Z"/><path class="cls-2" d="M85.19,12.62A12.88,12.88,0,0,1,85.1,14H77.88c.14,1.49,1.28,2.35,3.06,2.35a9.26,9.26,0,0,0,3.81-.81v2.79a9.54,9.54,0,0,1-4.12.79c-3.78,0-6.16-2.44-6.16-5.8a5.58,5.58,0,0,1,5.59-5.81A4.87,4.87,0,0,1,85.19,12.62ZM80,10.06a2.18,2.18,0,0,0-2.16,2.2H82A2,2,0,0,0,80,10.06Z"/><path class="cls-2" d="M90.42,7.77,90.51,9a2.24,2.24,0,0,1-.09.77h0a3.82,3.82,0,0,1,3.12-2.22,3.26,3.26,0,0,1,1.08,0,3.15,3.15,0,0,1,2.71,2.11,4.47,4.47,0,0,1,3.67-2.2c2.44,0,3.81,1.49,3.81,4.42v6.89h-3.3V12.37c0-1.07-.38-1.91-1.43-1.91-1.87,0-2.36,1.72-2.36,3.5v4.82H94.49V12.35c0-1-.3-1.89-1.4-1.89-1.85,0-2.38,1.69-2.38,3.5v4.82h-3.3v-11Z"/><path class="cls-2" d="M118.58,13.28a5.86,5.86,0,0,1-11.72,0,5.86,5.86,0,0,1,11.72,0Zm-3.1,0a2.77,2.77,0,1,0-5.52,0,2.77,2.77,0,1,0,5.52,0Z"/><path class="cls-2" d="M121,7.77V4.48h3.19V7.77h2.93v2.58h-2.93v4.42c0,1.17.68,1.56,1.41,1.56a4.48,4.48,0,0,0,1.87-.46v2.71a6.92,6.92,0,0,1-2.8.5A3.34,3.34,0,0,1,121,16c0-.35-.07-.73-.07-1.12V10.35h-1.52V7.77Z"/><path class="cls-2" d="M139.15,12.62c0,.59-.06,1.12-.08,1.34h-7.22c.13,1.49,1.28,2.35,3.06,2.35a9.16,9.16,0,0,0,3.8-.81v2.79a9.49,9.49,0,0,1-4.11.79c-3.79,0-6.16-2.44-6.16-5.8A5.58,5.58,0,0,1,134,7.47,4.87,4.87,0,0,1,139.15,12.62ZM134,10.06a2.17,2.17,0,0,0-2.16,2.2H136A2,2,0,0,0,134,10.06Z"/></g></g></svg>