<svg xmlns="http://www.w3.org/2000/svg" viewBox="0 0 64 62.3"><defs><style>.cls-1{fill:#8dceb8;}</style></defs><g id="Layer_2" data-name="Layer 2"><g id="Layer_1-2" data-name="Layer 1"><path class="cls-1" d="M61.6,29.1V14.3A3.421,3.421,0,1,0,57.2,11a3.549,3.549,0,0,0,2.4,3.3V28.7l-2.5,2.4a5.786,5.786,0,0,0-2-3.1,6.792,6.792,0,0,0-3.7-1.8l2.5-2.5a.908.908,0,0,0,.3-.7V7.8a3.362,3.362,0,0,0,2.4-3.3,3.4,3.4,0,1,0-6.8,0,3.549,3.549,0,0,0,2.4,3.3V22.5l-2.8,2.8A7.844,7.844,0,0,0,39,21.4V7.6a3.362,3.362,0,0,0,2.4-3.3,3.4,3.4,0,0,0-6.8,0A3.549,3.549,0,0,0,37,7.6V20.2a7,7,0,0,0-7.8-.9V7.6a3.362,3.362,0,0,0,2.4-3.3,3.4,3.4,0,0,0-6.8,0,3.549,3.549,0,0,0,2.4,3.3V18.8a8.5,8.5,0,0,0-13.3,4.7l-2.3-2.4V6.7A3.549,3.549,0,0,0,14,3.4,3.372,3.372,0,0,0,10.6,0,3.458,3.458,0,0,0,7.1,3.4,3.549,3.549,0,0,0,9.5,6.7V21.5a.908.908,0,0,0,.3.7l2.5,2.5a6.893,6.893,0,0,0-5.8,5.9L4.4,28.5V14.1a3.429,3.429,0,0,0-1-6.7A3.458,3.458,0,0,0,0,10.9a3.549,3.549,0,0,0,2.4,3.3V29a.908.908,0,0,0,.3.7l3,3A7.045,7.045,0,0,0,8.5,46.2h8.2v3.4a.974.974,0,0,0,.8,1l2.2.4a12.234,12.234,0,0,0,1,2.4l-1.2,1.7a1.059,1.059,0,0,0,.1,1.3l3,3.1a1.048,1.048,0,0,0,1.3.1l1.8-1.3a17.252,17.252,0,0,0,2.4,1l.4,2.2a.974.974,0,0,0,1,.8h4.3a.974.974,0,0,0,1-.8l.4-2.2a12.234,12.234,0,0,0,2.4-1l1.8,1.3a1.059,1.059,0,0,0,1.3-.1l3.1-3.1a1.048,1.048,0,0,0,.1-1.3l-1.3-1.8a17.252,17.252,0,0,0,1-2.4l2.2-.4a.974.974,0,0,0,.8-1V46.1h8.2a6.984,6.984,0,0,0,7-6.1,6.908,6.908,0,0,0-3.6-7.2l3.2-3.2C61.5,29.6,61.6,29.3,61.6,29.1ZM51.8,4.6a1.4,1.4,0,0,1,2.8,0,1.4,1.4,0,0,1-2.8,0ZM9.1,3.4a1.4,1.4,0,0,1,2.8,0,1.367,1.367,0,0,1-1.4,1.4A1.43,1.43,0,0,1,9.1,3.4ZM2,10.9A1.367,1.367,0,0,1,3.4,9.5a1.4,1.4,0,0,1,0,2.8A1.43,1.43,0,0,1,2,10.9ZM36.7,4.3a1.4,1.4,0,1,1,2.8,0,1.4,1.4,0,1,1-2.8,0Zm-9.8,0a1.4,1.4,0,1,1,2.8,0,1.367,1.367,0,0,1-1.4,1.4A1.312,1.312,0,0,1,26.9,4.3ZM44.5,48.7l-2,.3a1.085,1.085,0,0,0-.8.8,9.429,9.429,0,0,1-1.2,3,1.083,1.083,0,0,0,0,1.1l1.1,1.6-1.9,1.9-1.6-1.1a1.083,1.083,0,0,0-1.1,0,7.891,7.891,0,0,1-3,1.2,1.085,1.085,0,0,0-.8.8l-.3,2H30.3l-.3-2a1.085,1.085,0,0,0-.8-.8,13.426,13.426,0,0,1-3-1.2,1.083,1.083,0,0,0-1.1,0l-1.6,1.1-1.9-1.9,1.1-1.6a1.083,1.083,0,0,0,0-1.1,7.891,7.891,0,0,1-1.2-3,1.085,1.085,0,0,0-.8-.8l-2-.3V46.1l2-.4a1.085,1.085,0,0,0,.8-.8,11.083,11.083,0,0,1,1.2-3,1.083,1.083,0,0,0,0-1.1l-1.1-1.6,1.9-1.9,1.6,1.1a1.079,1.079,0,0,0,1.1,0,7.891,7.891,0,0,1,3-1.2,1.085,1.085,0,0,0,.8-.8l.3-2H33l.3,2a1.085,1.085,0,0,0,.8.8,13.426,13.426,0,0,1,3,1.2,1.083,1.083,0,0,0,1.1,0l1.6-1.1,1.9,1.9-1.1,1.6a1.083,1.083,0,0,0,0,1.1,7.891,7.891,0,0,1,1.2,3,1.085,1.085,0,0,0,.8.8l2,.4v2.6Zm15.2-8.8a4.935,4.935,0,0,1-5,4.4H45.3L43.5,44a12.234,12.234,0,0,0-1-2.4l1.3-1.8a1.059,1.059,0,0,0-.1-1.3l-3.1-3a1.048,1.048,0,0,0-1.3-.1l-1.8,1.2a13.323,13.323,0,0,0-2.4-1l-.4-2.2a.974.974,0,0,0-1-.8H29.4a.974.974,0,0,0-1,.8L28,35.6a12.234,12.234,0,0,0-2.4,1L24,35.3a1.059,1.059,0,0,0-1.3.1l-3,3a1.048,1.048,0,0,0-.1,1.3l1.3,1.8a17.252,17.252,0,0,0-1,2.4l-2,.4c-.4-.1.8,0-9.2,0a4.83,4.83,0,0,1-5-4.7c-.6-7.3,10-7.1,10-.4a1,1,0,0,0,2,0c0-4.3-3.9-7.3-7.1-7a5.076,5.076,0,0,1,6.1-5.5,1.073,1.073,0,0,0,1.2-1.1,6.489,6.489,0,0,1,11.3-4.3.1.1,0,0,0,.1.1A6.451,6.451,0,0,1,22.4,32a1,1,0,0,0,0,2,8.446,8.446,0,0,0,7.4-12.5,4.9,4.9,0,0,1,3.9-.9c3.8.7,3.2,4,4.9,3.5.5-.1,2.6-2.3,6-1A5.62,5.62,0,0,1,48,26.6a6.84,6.84,0,0,0-4.4,6.5,1,1,0,0,0,2,0A4.905,4.905,0,0,1,54,29.6a4.8,4.8,0,0,1,1.6,3.7,1.008,1.008,0,0,0,.7,1.1A4.8,4.8,0,0,1,59.7,39.9ZM59.1,11a1.4,1.4,0,1,1,1.4,1.4A1.43,1.43,0,0,1,59.1,11Z"/><path class="cls-1" d="M31.7,39.7a7.7,7.7,0,1,0,7.7,7.7A7.768,7.768,0,0,0,31.7,39.7Zm0,13.4a5.7,5.7,0,1,1,5.7-5.7A5.7,5.7,0,0,1,31.7,53.1Z"/></g></g></svg>