<svg xmlns="http://www.w3.org/2000/svg" viewBox="0 0 173.55 146.69"><defs><style>.cls-1{fill:#8dceb8;}</style></defs><g id="Layer_2" data-name="Layer 2"><g id="Layer_1-2" data-name="Layer 1"><g id="Layer_2-2" data-name="Layer 2"><g id="Layer_1-2-2" data-name="Layer 1-2"><path class="cls-1" d="M6,22.38Q27.28,36.36,47.49,52l-2.44-1.88Q63.88,64.59,81.63,80.41q5.1,4.56,10.11,9.21a12.58,12.58,0,0,0,8.38,3.51,12.3,12.3,0,0,0,8.64-3.51,12,12,0,0,0,0-17h0A692.43,692.43,0,0,0,38.4,15.5Q28.31,8.4,18.06,1.65A12,12,0,0,0,1.64,5.93l0,0A12,12,0,0,0,.4,15.06,13,13,0,0,0,6,22.38Z"/><path class="cls-1" d="M109.47,39.2c9.32,12.6,16.55,26.52,22.51,41l-1.22-3c6.22,15.22,11,31,15.49,46.78q1.89,6.74,3.73,13.49l8.56-14.65a6.5,6.5,0,0,1-.9.15l3.2-.4a34.28,34.28,0,0,1-9.05-.24l3.08.43c-4.57-.68-9.09-1.75-13.6-2.64l-13.91-2.88-28.08-5.89L83.18,108a12.86,12.86,0,0,0-9.26,1.18,12,12,0,0,0-4.36,16.4c1.62,2.53,4.11,4.91,7.16,5.53q32.69,6.79,65.38,13.56c3.7.77,7.42,1.44,11.19,1.85a41,41,0,0,0,11.33-.52c2.74-.45,6-3.13,7.31-5.54a12.33,12.33,0,0,0,1.26-9.11c-7.84-28.6-16-57.54-30.09-83.8a168.72,168.72,0,0,0-12.85-20.35,9.1,9.1,0,0,0-3.12-3.4,9,9,0,0,0-4-2.14A12,12,0,0,0,108.31,30h0c-.69,2.94-.71,6.71,1.17,9.25Z"/></g></g></g></g></svg>