<svg xmlns="http://www.w3.org/2000/svg" viewBox="0 0 321.1 207.937"><g id="Layer_2" data-name="Layer 2"><g id="Layer_1-2" data-name="Layer 1"><path d="M318.911,3.361a258.08,258.08,0,0,0-70.469-1.729A261.386,261.386,0,0,0,180.3,18.758a253.606,253.606,0,0,0-58.023,32.723,261.816,261.816,0,0,0-45.727,44.08,258.307,258.307,0,0,0-33.724,53.807q-1.644,3.543-3.175,7.135a3.1,3.1,0,0,0,1.076,4.105c1.262.738,3.464.422,4.105-1.077a254.48,254.48,0,0,1,74.752-98.4,248.5,248.5,0,0,1,54.843-33.42A255.1,255.1,0,0,1,309.078,7.948c2.753.347,5.5.754,8.238,1.2a3.092,3.092,0,0,0,3.691-2.1c.393-1.432-.487-3.429-2.1-3.691Z"/><path d="M21.508,131.943A197.969,197.969,0,0,0,2.339,187.9Q.817,196.344.009,204.9a3.012,3.012,0,0,0,3.8,2.893l59.385-23.212,16.7-6.528a3.09,3.09,0,0,0,2.095-3.691,3.022,3.022,0,0,0-3.69-2.095L18.914,195.475,2.212,202l3.8,2.892a192.82,192.82,0,0,1,13.879-55.415c2.046-4.935,4.339-9.769,6.8-14.509a3.068,3.068,0,0,0-1.076-4.105,3.032,3.032,0,0,0-4.105,1.076Z"/></g></g></svg>