<svg xmlns="http://www.w3.org/2000/svg" viewBox="0 0 57.6 95.029"><defs><style>.cls-1{fill:#161f6d;}</style></defs><g id="Layer_2" data-name="Layer 2"><g id="Layer_1-2" data-name="Layer 1"><path class="cls-1" d="M44.5,65.929c-.5,1.1-.9,2.2-1.3,3.3l-1.2,3.3c5.4,1.8,8.5,4.5,8.5,6.7,0,3.5-8.5,8.7-21.7,8.7s-21.7-5.1-21.7-8.7c0-2.1,3.1-4.8,8.5-6.7-.4-1.1-.8-2.3-1.2-3.3-.4-1.1-.9-2.2-1.3-3.3-8,2.7-13.1,7.6-13.1,13.3,0,9,12.4,15.8,28.8,15.8s28.8-6.8,28.8-15.8C57.6,73.529,52.5,68.629,44.5,65.929Z"/><path class="cls-1" d="M21,66.829q1.65,4.35,3,8.4a5.064,5.064,0,0,0,9.6,0q1.35-3.9,3-8.4a78.542,78.542,0,0,1,12.8-23.2A26.661,26.661,0,0,0,27.5.029a26.922,26.922,0,0,0-25.4,25.9A25.878,25.878,0,0,0,8,43.329,84.444,84.444,0,0,1,21,66.829Zm7.8-54.3a14.2,14.2,0,1,1-14.2,14.2A14.19,14.19,0,0,1,28.8,12.529Z"/></g></g></svg>