<svg xmlns="http://www.w3.org/2000/svg" viewBox="0 0 60 60"><defs><style>.cls-1{fill:#8dceb8;}</style></defs><g id="Layer_2" data-name="Layer 2"><g id="Layer_1-2" data-name="Layer 1"><path class="cls-1" d="M47.887,27A3.027,3.027,0,0,0,44.9,29.713,14.979,14.979,0,0,1,33,42.691V39.61a11.93,11.93,0,0,0,8.844-9.746A2.994,2.994,0,0,0,44,27V25a3,3,0,0,0-2-2.816V12a12,12,0,0,0-24,0V22.184A3,3,0,0,0,16,25v2a2.993,2.993,0,0,0,2.16,2.865A11.881,11.881,0,0,0,27,39.616v3.075A14.979,14.979,0,0,1,15.1,29.713a3.005,3.005,0,0,0-5.234-1.708,2.937,2.937,0,0,0-.74,2.277A20.941,20.941,0,0,0,27,48.765V52H21a3,3,0,0,0-3,3v2a3,3,0,0,0,3,3H39a3,3,0,0,0,3-3V55a3,3,0,0,0-3-3H33V48.765A20.94,20.94,0,0,0,50.877,30.281a2.942,2.942,0,0,0-.74-2.276A3.026,3.026,0,0,0,47.887,27ZM30,2a9.981,9.981,0,0,1,7.981,4H33V8h6.159a9.81,9.81,0,0,1,.639,2H33v2h7v2H33v2h7v2H33v2h7v2H20V20h7V18H20V16h7V14H20V12h7V10H20.2a9.81,9.81,0,0,1,.639-2H27V6H22.019A9.981,9.981,0,0,1,30,2ZM18,25a1,1,0,0,1,1-1H41a1,1,0,0,1,1,1v2a1,1,0,0,1-1,1H19a1,1,0,0,1-1-1Zm2.208,5H39.79a9.991,9.991,0,0,1-19.582,0ZM29,39.953c.33.027.663.047,1,.047s.669-.021,1-.049v3c-.332.022-.663.047-1,.047s-.668-.025-1-.047ZM40,55v2a1,1,0,0,1-1,1H21a1,1,0,0,1-1-1V55a1,1,0,0,1,1-1H39A1,1,0,0,1,40,55Zm-9-3H29V48.953c.333.016.663.047,1,.047s.667-.031,1-.047Zm-1-5A18.965,18.965,0,0,1,11.111,30.066a.928.928,0,0,1,.24-.725,1.006,1.006,0,0,1,1.759.6,17,17,0,0,0,33.78,0,1.006,1.006,0,0,1,1.759-.6.93.93,0,0,1,.24.724A18.965,18.965,0,0,1,30,47Z"/><path class="cls-1" d="M48.707,11.707l3-3L50.293,7.293,47.586,10H44v2h4A1,1,0,0,0,48.707,11.707Z"/><path class="cls-1" d="M50.293,22.707l1.414-1.414-3-3A1,1,0,0,0,48,18H44v2h3.586Z"/><rect class="cls-1" x="44" y="14" width="8" height="2"/><path class="cls-1" d="M54,8a3,3,0,1,0-3-3A3,3,0,0,0,54,8Zm0-4a1,1,0,1,1-1,1A1,1,0,0,1,54,4Z"/><path class="cls-1" d="M57,12a3,3,0,1,0,3,3A3,3,0,0,0,57,12Zm0,4a1,1,0,1,1,1-1A1,1,0,0,1,57,16Z"/><path class="cls-1" d="M54,22a3,3,0,1,0,3,3A3,3,0,0,0,54,22Zm0,4a1,1,0,1,1,1-1A1,1,0,0,1,54,26Z"/><path class="cls-1" d="M11.293,11.707A1,1,0,0,0,12,12h4V10H12.414L9.707,7.293,8.293,8.707Z"/><path class="cls-1" d="M8.293,21.293l1.414,1.414L12.414,20H16V18H12a1,1,0,0,0-.707.293Z"/><rect class="cls-1" x="8" y="14" width="8" height="2"/><path class="cls-1" d="M6,8A3,3,0,1,0,3,5,3,3,0,0,0,6,8ZM6,4A1,1,0,1,1,5,5,1,1,0,0,1,6,4Z"/><path class="cls-1" d="M6,15a3,3,0,1,0-3,3A3,3,0,0,0,6,15ZM2,15a1,1,0,1,1,1,1A1,1,0,0,1,2,15Z"/><path class="cls-1" d="M6,22a3,3,0,1,0,3,3A3,3,0,0,0,6,22Zm0,4a1,1,0,1,1,1-1A1,1,0,0,1,6,26Z"/><path class="cls-1" d="M25.333,34.217A6.951,6.951,0,0,0,27.667,35.6l.666-1.887a4.942,4.942,0,0,1-1.666-.988Z"/><path class="cls-1" d="M36.063,32.5l-1.731-1A5.023,5.023,0,0,1,30,34v2A7.027,7.027,0,0,0,36.063,32.5Z"/></g></g></svg>