<svg xmlns="http://www.w3.org/2000/svg" viewBox="0 0 999.9 757.6"><defs><style>.cls-1{fill:#8dceb8;}</style></defs><g id="Layer_2" data-name="Layer 2"><g id="Layer_1-2" data-name="Layer 1"><path class="cls-1" d="M676,192.6c-132.8,0-240.9,108.1-240.9,240.9S543.2,674.4,676,674.4,916.9,566.3,916.9,433.5,808.8,192.6,676,192.6Zm0,452.5c-116.7,0-211.6-94.9-211.6-211.6S559.3,221.9,676,221.9s211.6,94.9,211.6,211.6S792.7,645.1,676,645.1Z"/><path class="cls-1" d="M690.6,401.7V275a14.6,14.6,0,0,0-29.2,0V401.7a35.1,35.1,0,1,0,29.2,0Z"/><path class="cls-1" d="M731.7,114.4V71.6h25.2A14.617,14.617,0,0,0,771.5,57V14.6A14.617,14.617,0,0,0,756.9,0H595.1a14.617,14.617,0,0,0-14.6,14.6V57a14.617,14.617,0,0,0,14.6,14.6h25.2v42.8a323.17,323.17,0,0,0-165.9,83.1H230.2a29.3,29.3,0,1,0,0,58.6h175a324.208,324.208,0,0,0-24.6,44.8H294.9a29.3,29.3,0,1,0,0,58.6h65.8a332.084,332.084,0,0,0-7.3,44.8H29.3a29.25,29.25,0,1,0,0,58.5H353.4a314.679,314.679,0,0,0,7.3,44.8H316.2a29.3,29.3,0,1,0,0,58.6h64.4A324.208,324.208,0,0,0,405.2,611H288.7a29.3,29.3,0,0,0,0,58.6H454.3a322.8,322.8,0,0,0,221.6,88c178.6,0,324-145.3,324-324C1000,273.9,883.9,140.9,731.7,114.4Zm-122-85.2H742.2V42.4H609.7Zm39.9,80.3V71.6h52.9v37.9ZM676,728.2c-162.5,0-294.7-132.2-294.7-294.7S513.5,138.8,676,138.8,970.7,271,970.7,433.5,838.5,728.2,676,728.2Z"/><path class="cls-1" d="M117.3,256h25.4a29.3,29.3,0,1,0,0-58.6H117.3a29.3,29.3,0,1,0,0,58.6Z"/><path class="cls-1" d="M201.2,611H175.8a29.3,29.3,0,0,0,0,58.6h25.4a29.3,29.3,0,0,0,0-58.6Z"/><path class="cls-1" d="M124,330.1a29.277,29.277,0,0,0,29.3,29.3h58.9a29.3,29.3,0,1,0,0-58.6H153.3A29.405,29.405,0,0,0,124,330.1Z"/><path class="cls-1" d="M230.2,507.6H105a29.3,29.3,0,1,0,0,58.6H230.2a29.3,29.3,0,1,0,0-58.6Z"/></g></g></svg>